HIERARCHY
ROOT Pelvis
{
	OFFSET 0.000000 0.000000 0.000000
	CHANNELS 6 Xposition Yposition Zposition Xrotation Yrotation Zrotation
	JOINT LeftUpLeg_virtual
	{
		OFFSET 0.000000 0.000000 0.000000
		CHANNELS 3 Xrotation Yrotation Zrotation
		JOINT LeftUpLeg
		{
			OFFSET 18.735201 -5.666702 -4.541200
			CHANNELS 3 Xrotation Yrotation Zrotation
			JOINT LeftLeg
			{
				OFFSET -0.021200 -31.938179 0.493100
				CHANNELS 3 Xrotation Yrotation Zrotation
				JOINT LeftFoot
				{
					OFFSET 0.021200 -31.938179 -4.336299
					CHANNELS 3 Xrotation Yrotation Zrotation
					JOINT LeftToeBase
					{
						OFFSET 0.943001 -26.722000 15.023500
						CHANNELS 3 Xrotation Yrotation Zrotation
						End Site
						{
							OFFSET 0 0 0
						}
					}
				}
			}
		}
	}
	JOINT RightUpLeg_virtual
	{
		OFFSET 0.000000 0.000000 0.000000
		CHANNELS 3 Xrotation Yrotation Zrotation
		JOINT RightUpLeg
		{
			OFFSET -18.735201 -5.666702 -4.541200
			CHANNELS 3 Xrotation Yrotation Zrotation
			JOINT RightLeg
			{
				OFFSET 0.018946 -31.938133 0.493100
				CHANNELS 3 Xrotation Yrotation Zrotation
				JOINT RightFoot
				{
					OFFSET -0.018946 -31.938126 -4.336299
					CHANNELS 3 Xrotation Yrotation Zrotation
					JOINT RightToeBase
					{
						OFFSET -0.943001 -26.722004 15.023500
						CHANNELS 3 Xrotation Yrotation Zrotation
						End Site
						{
							OFFSET 0 0 0
						}
					}
				}
			}
		}
	}
	JOINT Hips_virtual
	{
		OFFSET 0.000000 0.000000 0.000000
		CHANNELS 3 Xrotation Yrotation Zrotation
		JOINT Hips
		{
			OFFSET -0.000000 -0.000000 -0.000000
			CHANNELS 3 Xrotation Yrotation Zrotation
			JOINT Spine
			{
				OFFSET 0.000000 10.199997 -0.299500
				CHANNELS 3 Xrotation Yrotation Zrotation
				JOINT Spine1
				{
					OFFSET 0.000000 11.900002 -1.516600
					CHANNELS 3 Xrotation Yrotation Zrotation
					JOINT Spine2
					{
						OFFSET 0.000000 13.600006 -2.842500
						CHANNELS 3 Xrotation Yrotation Zrotation
						JOINT Neck_virtual
						{
							OFFSET 0.000000 0.000000 0.000000
							CHANNELS 3 Xrotation Yrotation Zrotation
							JOINT Neck
							{
								OFFSET 0.000000 9.624100 -2.890100
								CHANNELS 3 Xrotation Yrotation Zrotation
								JOINT Head
								{
									OFFSET 0.000000 14.068802 -1.351900
									CHANNELS 3 Xrotation Yrotation Zrotation
									End Site
									{
										OFFSET 0 0 0
									}
								}
							}
						}
						JOINT LeftShoulder_virtual
						{
							OFFSET 0.000000 0.000000 0.000000
							CHANNELS 3 Xrotation Yrotation Zrotation
							JOINT LeftShoulder
							{
								OFFSET 15.263000 10.923401 -0.547700
								CHANNELS 3 Xrotation Yrotation Zrotation
								JOINT LeftArm
								{
									OFFSET 25.438599 -2.830597 -13.032500
									CHANNELS 3 Xrotation Yrotation Zrotation
									JOINT LeftForeArm
									{
										OFFSET 29.960503 0.000000 0.000000
										CHANNELS 3 Xrotation Yrotation Zrotation
										JOINT LeftHand
										{
											OFFSET 27.849251 0.000000 0.000000
											CHANNELS 3 Xrotation Yrotation Zrotation
											End Site
											{
												OFFSET 0 0 0
											}
										}
									}
								}
							}
						}
						JOINT RightShoulder_virtual
						{
							OFFSET 0.000000 0.000000 0.000000
							CHANNELS 3 Xrotation Yrotation Zrotation
							JOINT RightShoulder
							{
								OFFSET -15.263000 10.923401 -0.547700
								CHANNELS 3 Xrotation Yrotation Zrotation
								JOINT RightArm
								{
									OFFSET -25.438599 -2.830597 -13.032500
									CHANNELS 3 Xrotation Yrotation Zrotation
									JOINT RightForeArm
									{
										OFFSET -29.960503 0.000000 0.000000
										CHANNELS 3 Xrotation Yrotation Zrotation
										JOINT RightHand
										{
											OFFSET -27.849251 0.000000 0.000000
											CHANNELS 3 Xrotation Yrotation Zrotation
											End Site
											{
												OFFSET 0 0 0
											}
										}
									}
								}
							}
						}
					}
				}
			}
		}
	}
}
MOTION
Frames: 4
Frame Time: 0.03333333
-33.996506 92.179146 -29.295723 0.000000 0.000000 0.000000 4.589375 0.827218 -0.923269 -51.040067 -1.471418 9.556808 52.215758 8.280915 0.896938 18.050231 12.499277 -4.571319 0.000000 0.000000 0.000000 4.589375 0.827218 -0.923269 1.323576 -11.287367 -9.936643 23.225937 -7.871426 -0.427287 -11.871980 -4.986611 17.549520 0.000000 0.000000 0.000000 4.589375 0.827218 -0.923269 0.000000 0.000000 0.000000 1.776712 0.807957 -6.217073 2.669528 2.765866 -1.144402 0.000000 0.000000 0.000000 2.711151 2.741216 -1.111867 -0.061221 0.608107 0.812626 0.000000 0.000000 0.000000 2.711151 2.741216 -1.111867 1.433977 -4.062824 -11.219143 -3.341564 24.380999 -39.671316 0.000034 -68.585857 0.000013 0.000000 0.000000 0.000000 2.711151 2.741216 -1.111867 0.748684 -2.655728 10.687282 -17.948789 -16.241862 40.821261 -0.000004 12.072948 -0.000005 0.000000 0.000000 0.000000 
-33.645912 92.469635 -29.409454 0.000000 0.000000 0.000000 4.766360 0.008011 -0.691539 -48.980332 -1.429073 10.577079 53.054345 8.545143 1.025002 18.133857 14.714230 -1.564537 0.000000 0.000000 0.000000 4.766360 0.008011 -0.691539 0.042691 -10.917945 -11.542447 23.345515 -6.448476 -0.399624 -10.718149 -3.973820 18.540552 0.000000 0.000000 0.000000 4.766360 0.008011 -0.691539 0.000000 0.000000 0.000000 1.605938 1.220109 -6.490351 2.374022 3.259592 -1.400061 0.000000 0.000000 0.000000 2.430396 3.238701 -1.364457 -0.082929 0.574228 0.890202 0.000000 0.000000 0.000000 2.430396 3.238701 -1.364457 1.467534 -4.240642 -11.592414 5.654184 26.367479 -43.866825 -0.000042 -67.796758 -0.000044 0.000000 0.000000 0.000000 2.430396 3.238701 -1.364457 0.734775 -2.719271 10.596595 -18.801306 -15.324284 39.607065 0.000003 12.657100 -0.000010 0.000000 0.000000 0.000000 
-33.254913 92.688560 -29.495571 0.000000 0.000000 0.000000 5.091403 -0.672963 -0.531457 -46.583908 -1.407230 11.827150 52.960249 8.755384 1.160977 17.773614 17.057002 0.680026 0.000000 0.000000 0.000000 5.091403 -0.672963 -0.531457 -1.175219 -10.535621 -13.006774 23.228896 -4.777441 -0.326042 -9.591441 -3.183181 19.514296 0.000000 0.000000 0.000000 5.091403 -0.672963 -0.531457 0.000000 0.000000 0.000000 1.409312 1.594517 -6.668571 2.032629 3.712428 -1.607212 0.000000 0.000000 0.000000 2.103382 3.696494 -1.570160 -0.103605 0.539609 0.943590 0.000000 0.000000 0.000000 2.103382 3.696494 -1.570160 1.481603 -4.316642 -11.747586 12.772041 27.916448 -48.290892 -0.000037 -66.123963 -0.000036 0.000000 0.000000 0.000000 2.103382 3.696494 -1.570160 0.715792 -2.807281 10.472896 -19.463263 -14.733594 38.616674 -0.000001 13.178796 0.000011 0.000000 0.000000 0.000000 
-32.824284 92.847885 -29.577148 0.000000 0.000000 0.000000 5.522605 -1.132003 -0.454349 -43.942360 -1.337016 13.221352 52.047117 8.941849 1.299128 16.800590 19.448854 2.452785 0.000000 0.000000 0.000000 5.522605 -1.132003 -0.454349 -2.179460 -10.169937 -14.212495 22.764385 -2.775223 -0.190560 -8.511894 -2.899052 20.341316 0.000000 0.000000 0.000000 5.522605 -1.132003 -0.454349 0.000000 0.000000 0.000000 1.200218 1.923284 -6.735079 1.667890 4.119296 -1.757983 0.000000 0.000000 0.000000 1.751485 4.109058 -1.720883 -0.125358 0.501702 0.976473 0.000000 0.000000 0.000000 1.751485 4.109058 -1.720883 1.475788 -4.286666 -11.679664 17.858443 29.300361 -52.334361 -0.000001 -63.835317 -0.000006 0.000000 0.000000 0.000000 1.751485 4.109058 -1.720883 0.694858 -2.907715 10.339738 -19.916140 -14.501853 37.786738 0.000001 13.690953 -0.000005 0.000000 0.000000 0.000000 
